<svg 
    width="1354pt" 
    height="812pt" 
    version="1.0" 
    viewBox="0 0 1354 812" 
    xmlns="http://www.w3.org/2000/svg"
>
    <g transform="translate(0 812) scale(.1 -.1)">
        <path 
            fill="#FFF"
            d="m0 4060v-4060h6770 6770v4060 4060h-6770-6770v-4060zm4757 1053c-3-2959 2-2705-53-2988-60-309-188-631-344-866-22-33-40-63-40-65 0-3-5-10-10-17-6-7-27-35-48-62-95-129-239-278-394-407-139-116-394-268-543-322-27-10-63-24-80-32-129-57-364-108-577-125-418-34-846 69-1223 294-341 204-646 534-820 886-33 67-65 138-75 171-5 14-18 50-29 80-51 133-89 322-101 499-31 471 98 940 369 1341 115 170 288 352 446 470 33 25 62 47 65 50 19 19 74 52 90 53 10 1 18 5 17 9-2 8 96 68 110 68 3 0-16-24-43-53-71-77-82-92-116-159-60-119-77-271-45-418 23-103 44-158 178-460 11-25 26-58 34-75 7-16 29-70 49-120 21-49 41-99 45-110 21-49 41-105 61-169 25-77 28-161 20-481-5-163-3-185 14-225 26-58 77-122 126-157 39-28 40-28 40-95 0-37 5-78 11-91 18-40 181-126 317-167 191-58 370 13 496 197 25 38 70 88 98 113 184 159 215 206 203 300-20 145-1 420 28 420 4 0 5 4 2 10-3 5-2 27 4 47 5 21 17 72 26 113s22 102 30 135c22 102 67 317 90 435 9 47 22 117 30 155 8 39 17 88 20 110s12 78 20 125c47 289 54 372 65 870 8 338 12 409 29 490 28 129 45 182 56 173 4-4 5-2 1 5-11 18 50 135 103 195 89 102 185 156 341 189 59 12 65 16 68 40 3 22-2 28-30 36-269 82-582 89-809 18l-47-14-78 79c-44 44-110 106-149 137-38 31-78 65-89 74-19 17-205 144-241 165-91 52-309 152-390 179-22 7-67 23-100 34-231 82-571 140-815 140-228 0-616-64-783-129-16-6-33-11-38-11s-9 56-9 130c0 126 1 130 23 134 12 2 47 9 77 15 244 51 643 67 870 35 171-23 299-50 435-91 70-22 187-64 290-105 61-24 279-132 320-159 17-10 37-22 45-26 34-16 300-210 331-242 36-37 202-186 210-189 5-2 9 3 9 12s-3 16-7 16c-5 0-15 12-24 28-62 108-312 372-479 506-108 87-285 216-295 216-3 0-34 18-71 40-142 88-384 195-564 251-36 11-80 25-99 31-209 65-624 107-876 88-77-5-152-10-167-10h-28v475 475h2210 2210l-3-2717zm3103 1024c120-18 223-71 318-162 39-38 72-73 72-77s13-29 30-56c70-114 92-305 51-437-35-111-121-231-219-308-77-60-224-107-332-107-65 0-199 25-214 40-6 6-16 10-24 10-39 0-252 181-252 214 0 5-6 17-13 25-16 19-39 76-61 150-32 106-15 268 39 381 37 79 51 98 119 165 87 86 193 141 306 160 97 17 82 16 180 2zm2350-3c163-20 356-170 425-329 27-63 55-185 55-240 0-67-31-187-66-260-41-84-169-211-254-252-234-113-492-71-669 110-116 118-163 235-163 402 0 246 133 443 367 541 53 22 171 44 215 39 19-2 60-7 90-11zm894-46c34-35 95-99 136-144 67-72 245-261 419-446 35-37 68-68 73-68 4 0 8 150 8 333 0 253 3 337 13 351s26 16 97 14l85-3v-565-565l-26-3c-26-3-34 3-101 79-81 91-178 199-208 230-19 20-44 47-55 60-96 112-332 365-342 367-11 3-13-65-13-357v-361h-94c-76 0-95 3-100 16-3 9-6 260-6 559 0 508 1 545 18 554 28 17 32 14 96-51zm1801 48c86-14 147-36 210-74 83-50 105-67 105-82s-105-130-119-130c-5 0-19 10-32 21-49 44-130 73-212 77-120 6-202-23-279-101-85-84-111-150-111-282 0-93 2-105 32-165 48-98 113-157 211-193 62-23 207-22 275 2l50 18 6 152-156 6-3 79c-2 57 1 82 10 87 7 5 81 9 164 9 117 0 154-3 163-14 8-9 11-79 9-231l-3-218-45-23c-89-46-247-83-350-84-84 0-210 31-280 69-92 51-200 163-242 251-45 96-53 133-53 255 0 126 17 198 65 276 11 19 23 41 27 49 7 16 114 124 149 151 65 50 200 96 319 108 6 0 46-5 90-13zm-6007-426c2-294-1-432-9-475-14-71-63-150-113-184-83-55-204-74-298-47-61 18-148 85-148 115 0 9 22 39 49 65l50 49 31-26c17-15 49-32 71-38 34-11 46-10 86 7 85 35 83 25 83 515 0 234 3 429 7 433s48 5 98 4l90-3 3-415zm2016 404c3-9 6-220 6-470v-454h214c171 0 216-3 225-14 7-9 11-42 9-88l-3-73-317-3-318-2v560 560h89c72 0 90-3 95-16zm-1497-2001c18-38 40-88 51-113 18-42 50-113 92-205 10-22 30-67 45-100s40-89 56-124c32-66 32-91 1-91-14 0-30 25-61 95l-44 95h-181-181l-17-38c-10-20-29-63-43-94-18-42-30-58-44-58-40 0-38 11 39 176 22 46 40 87 40 89 0 3 20 48 45 101 25 52 45 97 45 99 0 3 23 53 50 111 28 58 50 110 50 115s6 9 13 9 27-30 44-67zm-768 33c133-72 158-228 52-336-59-59-94-70-219-70h-101l-3-127c-3-124-4-128-25-131l-23-3v346 347l143-4c114-3 149-7 176-22zm1828-15c61-42 93-98 93-164 0-76-36-133-114-181l-34-21 17-35c10-19 41-79 70-133 55-102 57-126 9-114-18 5-37 34-83 127-33 67-58 124-57 127 9 15-31 23-120 23h-97l-3-131c-3-110-6-134-20-142-12-8-21-7-32 2-14 12-16 54-16 341 0 179 3 330 7 334 5 4 80 6 169 4l161-3 50-34zm601-118c1-89 7-153 12-153s81 70 167 155c138 135 162 155 191 155 17 0 32-3 32-6 0-6-80-85-239-237-45-43-81-82-79-87s77-84 167-174c92-93 160-169 157-175-20-31-56-8-167 105-182 185-222 224-231 224-4 0-8-74-8-164 0-100-4-167-10-171-6-3-19-3-30 0-19 6-20 16-20 339 0 183 3 336 7 340s16 6 28 4c19-3 20-11 23-155zm1933-1240c49-58 254-181 357-213 42-13 49-23 33-49-7-11-31-2-117 41-133 66-173 92-253 158l-63 52-36-34c-69-65-86-78-151-117-154-91-220-119-233-99-13 22-10 24 70 59 117 51 252 137 306 198 23 25 68 28 87 4zm-3041-33v-40h80c64 0 80-3 80-15 0-10-10-15-30-15-16 0-30-4-30-10v-15c0-3-9-25-20-51-11-25-20-50-20-55s25-9 55-9c48 0 55-2 55-20 0-19-7-20-205-20s-205 1-205 20c0 18 7 20 61 20h62l-7 32c-3 18-11 50-17 71-10 39-11 39-50 34-34-4-39-2-39 14 0 17 8 19 90 19h90v40c0 36 3 40 25 40 23 0 25-4 25-40zm-1274-81-6-110 142 3 143 3v-285-285l78-3c76-3 77-2 88 24 5 15 12 48 15 73 11 93 14 100 43 82 11-7 11-21 1-82-16-103-17-106-54-129-56-34-192-26-218 14-4 6-8 131-8 279v267h-115c-112 0-115 0-115-22-1-30-35-194-50-238-33-98-105-200-184-261-28-22-59-47-69-55-16-13-20-13-36 7-18 22-18 23 16 46 19 13 37 23 41 23 20 0 135 138 161 193 30 62 58 170 68 260l6 49-137-4-136-3v25 25l134-3 134-4 7 86c4 47 4 97 1 111-6 23-4 25 25 25h32l-7-111zm1554 76v-35h150c143 0 150-1 150-20s-7-20-149-20h-149l-4-35c-2-19-1-40 2-46 5-6 60-9 153-7l147 3v-75-75l-310 6v-41-40h150c143 0 150-1 150-20s-7-20-150-20h-150v-40-40h145c122 0 145-2 145-15s-23-15-145-15h-145v-46-45l150 3c137 3 150 2 150-14s-14-18-150-18h-150v-49-50l56-7c58-7 231-1 240 9 3 3 8 23 11 45 5 38 7 40 29 30 28-13 29-16 8-68-13-32-23-42-53-50-56-15-255-13-296 4l-35 15v250 251h156 155l-3 43-3 42-152 3-153 3v109 110h25c22 0 25-4 25-35zm1660-32c0-23-1-23-155-23h-155v-55-54l132-3c119-3 133-5 136-21 2-11-2-18-10-16-7 1-68 1-135 0l-123-1v-55-55h135c122 0 135-2 135-17 0-16-12-18-135-15l-135 4v-61-61h180 180l-5-22c-3-13-9-63-15-113-12-119-37-196-70-212-37-19-136-17-144 3-12 31-6 35 43 28 52-7 84 4 101 35 7 14 40 208 40 238 0 2-146 3-325 3h-325v248 247h325 325v-22zm1380-313v-120h-315-315v120 120h315 315v-120zm-3190-209c0-226 0-230-22-245-14-10-44-16-75-16-50 0-53 1-53 26 0 24 1 25 46 18 57-8 64 0 64 84v62h-121-120l3-95c3-89 2-95-17-95s-20 7-20 245v245h158 157v-229zm3140-131c0-142-1-150-19-150-13 0-21 8-23 23-3 22-3 22-225 25-218 2-223 2-223-18 0-13-7-20-20-20-19 0-20 7-20 145v145h265 265v-150z"
        />

        <path
            fill="#FFF"
            d="m7660 5933c-96-34-186-113-229-203-23-49-26-67-26-170 0-125 3-135 72-229 40-53 81-85 152-117 44-20 70-24 147-24 84 0 101 3 159 31 246 116 300 429 106 619-49 47-83 68-149 91-67 23-169 24-232 2z"
        />

        <path
            fill="#FFF"
            d="m10003 5936c-91-30-181-102-229-186-52-90-57-243-12-341 27-59 111-159 134-159 8 0 14-4 14-9 0-4 25-18 56-30 71-27 206-29 274-4 93 34 168 102 212 192 31 62 33 72 32 171 0 99-2 108-33 167-41 76-116 147-191 181-67 31-192 39-257 18z"
        />

        <path
            fill="#FFF"
            d="m7354 4033c-5-18-10-28-57-133-55-120-77-173-77-181 0-5 70-9 155-9s155 4 155 9c0 13-33 91-113 264-31 66-53 84-63 50z"
        />

        <path
            fill="#FFF"
            d="m6380 3955v-155h106c116 0 159 15 198 67 26 35 27 137 2 175-36 56-72 68-195 68h-111v-155z"
        />

        <path
            fill="#FFF"
            d="m8160 3959v-151l128 4c115 3 131 6 158 27 86 67 83 187-6 251-25 17-44 20-154 20h-126v-151z"
        />

        <path
            fill="#FFF"
            d="m7864 2643c4-16 9-47 13-71l6-43 112 6 17 50c29 87 30 85-68 85h-86l6-27z"
        />

        <path
            fill="#FFF"
            d="m9300 2625v-55h125 125v55 55h-125-125v-55z"
        />

        <path
            fill="#FFF"
            d="m9300 2475v-55h125 125v55 55h-125-125v-55z"
        />

        <path
            fill="#FFF"
            d="m9300 2330v-60h125 125v60 60h-125-125v-60z"
        />

        <path
            fill="#FFF"
            d="m10700 2390v-90h125 125v90 90h-125-125v-90z"
        />

        <path
            fill="#FFF"
            d="m10990 2390v-90h130 130v90 90h-130-130v-90z"
        />

        <path
            fill="#FFF"
            d="m7820 2330v-50h120 120v50 50h-120-120v-50z"
        />

        <path
            fill="#FFF"
            d="m7820 2190v-50h120 120v50 50h-120-120v-50z"
        />

        <path
            fill="#FFF"
            d="m10750 2130v-40h225 225v40 40h-225-225v-40z"
        />
        
        <path
            fill="#FFF"
            d="m10750 2020v-40h225 225v40 40h-225-225v-40z"
        />
    </g>
</svg>