<?xml version="1.0" encoding="UTF-8" standalone="no"?>
<!DOCTYPE svg PUBLIC "-//W3C//DTD SVG 20010904//EN"
              "http://www.w3.org/TR/2001/REC-SVG-20010904/DTD/svg10.dtd">

<svg xmlns="http://www.w3.org/2000/svg"
     width="117.196mm" height="202.116mm"
     viewBox="0 0 443 764">
  <path id="Selection"
        fill="none" stroke="black" stroke-width="1"
        d="M 0.00,1.00
           C 0.00,1.00 0.00,95.00 0.00,95.00
             0.00,95.00 25.00,93.91 25.00,93.91
             25.00,93.91 33.00,93.04 33.00,93.04
             33.00,93.04 68.00,95.29 68.00,95.29
             124.60,102.25 180.80,128.56 222.00,168.00
             233.27,178.78 239.32,184.81 249.21,196.96
             253.56,202.32 258.36,207.53 261.00,214.00
             261.00,214.00 239.42,194.89 239.42,194.89
             239.42,194.89 226.00,183.00 226.00,183.00
             226.00,183.00 223.00,180.00 223.00,180.00
             217.70,179.03 206.48,170.63 201.00,167.40
             189.20,160.45 176.68,154.86 164.00,149.73
             144.32,141.77 123.95,136.61 103.00,133.57
             95.14,132.43 89.11,131.01 81.00,131.00
             81.00,131.00 47.00,131.00 47.00,131.00
             47.00,131.00 13.00,135.58 13.00,135.58
             10.73,136.07 2.92,137.11 1.57,138.17
             -0.30,139.66 0.01,142.85 0.00,145.00
             -0.03,151.01 -0.62,158.29 1.00,164.00
             25.91,154.04 61.20,148.69 88.00,149.00
             88.00,149.00 109.00,150.96 109.00,150.96
             118.13,151.40 132.12,154.12 140.99,156.63
             146.01,158.05 147.94,157.17 152.00,161.00
             159.19,160.61 173.85,166.55 181.00,169.36
             206.14,179.23 224.09,190.26 244.83,207.53
             244.83,207.53 259.73,221.28 259.73,221.28
             262.03,223.64 265.01,227.49 267.91,228.89
             271.19,230.46 274.78,228.37 278.00,227.44
             278.00,227.44 294.00,224.44 294.00,224.44
             308.11,222.17 329.24,223.56 343.00,227.29
             346.69,228.29 355.22,229.46 356.83,233.19
             358.28,236.54 354.41,237.90 352.00,238.61
             352.00,238.61 343.00,240.54 343.00,240.54
             343.00,240.54 329.00,245.00 329.00,245.00
             329.00,245.00 327.00,249.00 327.00,249.00
             320.18,250.24 315.72,258.43 311.00,263.00
             311.00,263.00 303.00,281.00 303.00,281.00
             303.00,281.00 299.12,303.00 299.12,303.00
             299.12,303.00 299.12,313.00 299.12,313.00
             299.12,313.00 298.03,321.00 298.03,321.00
             298.03,321.00 298.03,335.00 298.03,335.00
             298.03,335.00 298.03,361.00 298.03,361.00
             298.03,361.00 297.00,376.00 297.00,376.00
             297.00,376.00 295.96,392.00 295.96,392.00
             295.96,392.00 295.96,401.00 295.96,401.00
             295.96,401.00 292.97,418.00 292.97,418.00
             292.97,418.00 292.37,426.00 292.37,426.00
             292.37,426.00 290.18,436.00 290.18,436.00
             290.18,436.00 287.25,452.99 287.25,452.99
             287.25,452.99 284.00,466.00 284.00,466.00
             284.87,474.51 281.12,482.05 279.90,490.00
             279.11,495.11 277.90,506.08 275.00,510.00
             275.40,514.67 271.67,533.39 269.00,537.00
             269.19,541.42 268.69,546.40 266.00,550.00
             266.00,550.00 265.00,565.00 265.00,565.00
             265.00,565.00 265.00,582.00 265.00,582.00
             268.38,586.60 266.92,592.27 264.35,597.00
             260.54,604.01 245.97,616.21 239.00,621.00
             238.26,625.82 233.23,631.46 229.91,634.99
             214.25,651.65 195.84,651.93 176.00,643.12
             170.70,640.76 156.83,634.98 156.00,629.00
             152.81,624.67 154.00,618.17 154.00,613.00
             146.23,611.47 137.53,598.60 136.18,591.00
             136.18,591.00 136.18,536.00 136.18,536.00
             136.18,536.00 135.61,530.00 135.61,530.00
             135.61,530.00 124.00,495.00 124.00,495.00
             120.49,491.44 115.41,478.98 115.00,474.00
             115.00,474.00 114.00,472.00 114.00,472.00
             111.36,469.16 107.99,461.93 108.00,458.00
             108.00,458.00 107.00,456.00 107.00,456.00
             107.00,456.00 105.00,451.00 105.00,451.00
             99.95,445.88 98.79,437.82 97.59,431.00
             97.59,431.00 95.37,418.00 95.37,418.00
             94.87,408.23 98.78,395.40 103.57,387.00
             103.57,387.00 115.00,371.00 115.00,371.00
             106.64,373.19 91.05,384.76 84.28,390.53
             81.26,393.10 74.28,400.17 71.00,401.00
             71.00,401.00 70.00,402.00 70.00,402.00
             70.00,402.00 71.00,404.00 71.00,404.00
             71.00,404.00 66.00,406.00 66.00,406.00
             65.40,409.11 64.01,410.20 61.00,411.00
             61.00,411.00 60.00,412.00 60.00,412.00
             60.00,412.00 47.88,429.17 47.88,429.17
             47.88,429.17 30.00,456.00 30.00,456.00
             30.00,456.00 29.00,458.00 29.00,458.00
             28.51,462.18 27.80,463.85 25.00,467.00
             25.00,467.00 26.00,469.00 26.00,469.00
             22.71,471.82 19.38,483.47 17.99,488.00
             12.71,505.22 8.14,522.84 8.00,541.00
             8.00,541.00 7.04,553.00 7.04,553.00
             7.04,553.00 9.10,583.00 9.10,583.00
             15.68,625.22 36.49,666.04 66.26,696.73
             66.26,696.73 86.09,714.70 86.09,714.70
             86.09,714.70 98.00,723.13 98.00,723.13
             102.94,726.79 110.61,730.63 114.00,735.00
             118.50,735.13 130.89,741.72 134.00,745.00
             139.29,744.43 148.47,749.53 154.00,751.33
             161.97,753.93 183.55,758.57 192.00,759.51
             210.88,761.57 224.29,760.83 243.00,759.51
             250.69,758.98 259.41,755.82 266.00,757.00
             266.00,757.00 276.00,752.96 276.00,752.96
             276.00,752.96 295.00,748.00 295.00,748.00
             295.00,748.00 320.83,734.51 320.83,734.51
             320.83,734.51 355.00,713.00 355.00,713.00
             355.00,713.00 358.00,707.00 358.00,707.00
             361.04,706.80 360.93,706.87 362.00,704.00
             362.00,704.00 364.00,705.00 364.00,705.00
             364.00,705.00 375.98,692.00 375.98,692.00
             375.98,692.00 393.27,671.00 393.27,671.00
             393.27,671.00 408.35,648.00 408.35,648.00
             408.35,648.00 417.00,634.00 417.00,634.00
             417.00,634.00 422.33,619.58 422.33,619.58
             422.33,619.58 428.00,607.00 428.00,607.00
             428.00,607.00 431.97,592.00 431.97,592.00
             431.97,592.00 434.86,581.00 434.86,581.00
             434.86,581.00 441.00,540.00 441.00,540.00
             441.00,540.00 441.00,536.00 441.00,536.00
             441.00,536.00 442.00,522.00 442.00,522.00
             442.00,522.00 442.00,348.00 442.00,348.00
             442.00,348.00 442.00,1.00 442.00,1.00
             442.00,1.00 0.00,1.00 0.00,1.00 Z
           M 307.00,277.00
           C 307.00,277.00 307.00,278.00 307.00,278.00
             307.00,278.00 306.00,277.00 306.00,277.00
             306.00,277.00 307.00,277.00 307.00,277.00 Z
           M 307.00,280.00
           C 307.00,280.00 307.00,281.00 307.00,281.00
             307.00,281.00 306.00,280.00 306.00,280.00
             306.00,280.00 307.00,280.00 307.00,280.00 Z
           M 107.00,376.00
           C 107.00,376.00 107.00,377.00 107.00,377.00
             107.00,377.00 106.00,376.00 106.00,376.00
             106.00,376.00 107.00,376.00 107.00,376.00 Z" />
</svg>
